<?xml version="1.0" encoding="utf-8"?>
<!-- Generator: Adobe Illustrator 19.1.0, SVG Export Plug-In . SVG Version: 6.00 Build 0)  -->
<svg version="1.1" id="Layer_1" xmlns="http://www.w3.org/2000/svg" xmlns:xlink="http://www.w3.org/1999/xlink" x="0px" y="0px"
	 viewBox="0 0 550 93.9" style="enable-background:new 0 0 550 93.9;" xml:space="preserve">
<style type="text/css">
	.st0{fill:#FFFFFF;}
</style>
<g>
	<g>
		<path class="st0" d="M479,63.4c-0.4,1.9,1,3,4.3,3.4h48.6l-3,6.9h-55.5c-6.7,0-9.8-2-9.5-6l11.6-25.4c2-3.4,5.2-6.1,9.8-8
			c3.7-1.6,7.3-2.3,10.7-2.3l50,0l-8.8,19.4c-0.6,1.4-1.6,2.8-2.8,4c-2.3,2.3-5.3,3.4-9.2,3.4h-44.1L479,63.4z M491.9,39.6
			c-1.9,1.1-3.3,2.6-4.1,4.4l-3.8,8.4h33.8c2.4,0,4.3-0.3,5.8-1c1.5-1.2,2.5-2.5,3.1-3.9l4.4-9.7h-33.2
			C495.8,37.9,493.8,38.5,491.9,39.6z"/>
		<path class="st0" d="M411.4,16.1l-16,3.1l-4.2,9.1l16-3.1L411.4,16.1z M412,31.9l-2.7,6.1H455l-2.6,5.6c-0.8,1.9-2.2,3.3-4,4.4
			c-1.9,1.1-3.8,1.6-5.9,1.6h-28c-7.1,0-11.7,2.4-13.9,6.9l-14.1,30.9h-0.8c-3.3,0-4.9-1-4.9-3.3c0-0.7,0.2-1.6,0.6-2.5l23.4-51.5
			l-16,3.1l-22.7,49.9c-0.2,0.7-0.2,1.4-0.2,2.1c0,2.8,1.4,5,4.3,6.6c2.3,1.3,5.1,2.1,8.1,2.1l7.6,0l62.9,0l2.7-6.3h-50.8l12.8-27.9
			c0.8-1.8,2.6-2.9,5.4-3.4c1.1-0.2,3.4-0.3,6.7-0.3h18.8c3.4,0,7.1-0.8,11.2-2.4c5-2,8.5-4.7,10.5-8.1l6.1-13.4H412z M226.3,16.1
			l-16,3.1l-4.2,9.1l16-3.1L226.3,16.1z M366.7,31.9l-16.2,35.6h-23.6l16.2-35.6h-14.4l-16.2,35.6h-16.1c-3.5,0-5.2-1.3-5.2-3.8
			c0-0.8,0.2-1.6,0.5-2.3l13.5-29.5h-10.8l0,0h-46l7.2-15.8l-15.4,3l-5.8,12.8h-11.7l-2.7,5.9h11.7l-20.6,45.1
			c-0.3,0.9-0.5,1.8-0.5,2.6c0,0.7,0.1,1.3,0.3,1.9h-10.2c-3.3,0-4.9-1.2-4.9-3.6c0-0.7,0.2-1.6,0.6-2.5l23.3-51.3l-16,3.1
			l-22.6,49.7c-0.2,0.7-0.2,1.4-0.2,2.1c0,2.8,1.3,5.3,4.1,6.9c2.3,1.3,5,2,8,2h29.5l40.8,0l2.8-6.4h-36c-3.4,0-5-1.2-5-3.6
			c0-0.7,0.2-1.5,0.6-2.4l19.9-43.6h42.5l-11.5,25.3c-0.3,0.9-0.5,1.7-0.5,2.6c0,2.6,1.5,4.7,4.5,6.2c2.4,1.2,5.1,1.8,8,1.8h73.3
			l19-41.7H366.7z M190.6,39.9c0-2.6-1.5-4.7-4.5-6.2c-2.3-1.2-5-1.8-8-1.8l-37.3,0l7.2-15.8l-16,3.1l-24.8,54.4h55.2
			c7,0,13.6-0.9,16.1-6l11.6-25.3C190.4,41.5,190.6,40.7,190.6,39.9z M175.1,44.1l-8.8,19.3c-1.3,2.2-3.8,3.3-7.4,3.3h-34L138,38
			h32.6c3.4,0,5,1.2,5,3.7C175.6,42.5,175.4,43.3,175.1,44.1z"/>
	</g>
	<g>
		<path class="st0" d="M93.5,46.7C93.5,20.9,72.5,0,46.7,0C20.9,0,0,20.9,0,46.7c0,25.8,20.9,46.7,46.7,46.7
			c6.2,0,12.1-1.2,17.6-3.4c-5.5-0.7-9.8-5.3-9.8-11c0-6.1,5-11.1,11.1-11.1c6.1,0,11.1,5,11.1,11.1c0,1.5-0.3,2.9-0.8,4.2
			C86.6,74.6,93.5,61.5,93.5,46.7z"/>
	</g>
</g>
</svg>
