<svg height="224" viewBox="0 0 224 224" width="224" xmlns="http://www.w3.org/2000/svg" xmlns:xlink="http://www.w3.org/1999/xlink"><linearGradient id="a" x1="50.000041%" x2="50.000041%" y1="100%" y2=".000171%"><stop offset="0" stop-color="#20b038"/><stop offset="1" stop-color="#60d66a"/></linearGradient><g fill="none" fill-rule="evenodd"><path d="m190.355785 32.525677c-20.947837-20.9622708-48.802219-32.51288744-78.479113-32.525677-61.153827 0-110.92074378 49.7510212-110.94522665 110.902108-.00712561 19.547197 5.10029364 38.628124 14.80811745 55.447491l-15.7395628 57.470616 58.8133377-15.421651c16.2041892 8.837221 34.449044 13.493899 53.0156473 13.50139h.047139.000548c61.143961 0 110.918369-49.759791 110.944313-110.907954.010232-29.6366982-11.520104-57.5025905-32.4652-78.466323zm-78.479113 170.642506h-.035993c-16.549325-.00877-32.7781798-4.451863-46.9336643-12.851498l-3.36877-1.996998-34.9010636 9.150564 9.3181076-34.015843-2.1948711-3.487348c-9.2313214-14.678029-14.1046917-31.640456-14.0977488-49.057827.0202806-50.8268056 41.3846395-92.1767306 92.2489002-92.1767306 24.63123.0102317 47.781612 9.6111713 65.19277 27.0343883 17.410062 17.4230343 26.991087 40.5845612 26.983778 65.2172533-.021559 50.82845-41.38738 92.184039-92.211445 92.184039z" fill="#e0e0e0" fill-rule="nonzero"/><path d="m5.09298532 217.443341 15.02060688-54.845286c-9.2667668-16.051262-14.13995435-34.261951-14.1341077-52.9126.02430017-58.3565676 47.5183295-105.83360508 105.8736185-105.83360508 28.322662.01278956 54.905213 11.03519738 74.891641 31.04044368 19.990812 20.0050637 30.993305 46.5962023 30.981794 74.8759284-.0243 58.358029-47.521253 105.839269-105.869233 105.839269-.004202 0 .002923 0 0 0h-.047139c-17.7184727-.005664-35.1285347-4.453507-50.5914776-12.880914z" fill="url(#a)" fill-rule="nonzero"/><g fill="#fff"><path d="m84.4609723 63.8188059c-2.0525416-4.5634976-4.2136118-4.6548516-6.1663948-4.734695-1.5972333-.0685155-3.4257749-.0643132-5.2513932-.0643132-1.8270799 0-4.7960848.6866167-7.306858 3.4286982-2.5122349 2.7420816-9.5921697 9.3709103-9.5921697 22.8527504 0 13.4833018 9.8205547 26.5112957 11.1894029 28.3411157 1.37031 1.82708 18.957416 30.378127 46.8103365 41.361984 23.148189 9.128274 27.858766 7.312522 32.883236 6.855752s16.212411-6.627367 18.496261-13.026532c2.28385-6.397703 2.28385-11.881683 1.598695-13.027993-.685155-1.141925-2.512235-1.82708-5.252855-3.19739s-16.212411-8.000601-18.724646-8.914141-4.339315-1.37031-6.166395 1.373234c-1.827079 2.74062-7.075732 8.911217-8.674427 10.738297-1.598695 1.831282-3.19739 2.059667-5.93801.689357-2.74062-1.374512-11.566329-4.265136-22.036228-13.600418-8.1462187-7.262643-13.6460947-16.232509-15.2447896-18.975869-1.598695-2.74062-.1713801-4.2251226 1.2033148-5.5912303 1.2303556-1.227615 2.7406199-3.1988515 4.1109299-4.7990081 1.3673866-1.6001566 1.8241566-2.7420816 2.7376965-4.5691615.91354-1.8300033.45677-3.4299772-.228385-4.8002871-.6851549-1.37031-6.0107275-14.9217619-8.4473213-20.3401501z"/><path d="m189.449553 32.1732333c-20.707393-20.7216444-48.242036-32.13943232-77.577997-32.15240459-60.4520454 0-109.6476343 49.17987599-109.67193447 109.62899829-.00712561 19.323015 5.04164438 38.184692 14.63801627 54.811119l-15.55868185 56.810676 58.13823165-15.24479c16.0183752 8.735635 34.0536639 13.339145 52.4072304 13.346271h.04659.000548c60.441997 0 109.644712-49.188464 109.670473-109.634845.010049-29.295948-11.387823-56.8419187-32.092476-77.5650247zm-77.577997 168.6836937h-.035628c-16.3594908-.008588-32.4021662-4.400705-46.3950406-12.70387l-3.3302186-1.97416-34.500385 9.045508 9.2110408-33.625397-2.1696574-3.447152c-9.1253507-14.509572-13.9428124-31.277416-13.9356868-48.494721.0199152-50.2432361 40.909416-91.1184857 91.1899246-91.1184857 24.348764.0100489 47.23294 9.5008156 64.444581 26.7239673 17.21018 17.2231518 26.681031 40.1186558 26.673906 64.4688814-.02156 50.244515-40.912523 91.125429-91.152836 91.125429z" fill-rule="nonzero"/></g></g></svg>