<?xml version="1.0" encoding="utf-8"?>
<!-- Generator: Adobe Illustrator 19.1.0, SVG Export Plug-In . SVG Version: 6.00 Build 0)  -->
<svg version="1.1" id="Layer_1" xmlns="http://www.w3.org/2000/svg" xmlns:xlink="http://www.w3.org/1999/xlink" x="0px" y="0px"
	 viewBox="0 0 1024 1024" style="enable-background:new 0 0 1024 1024;" xml:space="preserve">
<style type="text/css">
	.st0{fill:#D80212;}
</style>
<g>
	<g>
		<path d="M871.6,540.9c-0.7,3.4,1.8,5.3,7.4,5.8h84.6l-5.3,12h-96.7c-11.6,0-17.2-3.5-16.6-10.4l20.3-44.3
			c3.4-6,9.1-10.6,17.2-13.9c6.5-2.7,12.7-4.1,18.7-4.1l87.2,0L973,519.8c-1.1,2.5-2.7,4.8-4.9,6.9c-4,4-9.3,5.9-16,5.9h-76.8
			L871.6,540.9z M894.1,499.5c-3.4,2-5.8,4.5-7.2,7.7l-6.6,14.7h58.9c4.1,0,7.5-0.6,10.1-1.8c2.6-2.2,4.4-4.4,5.4-6.7l7.7-16.9
			h-57.9C901,496.5,897.5,497.5,894.1,499.5z"/>
		<path d="M753.8,458.5l-27.8,5.4l-7.3,15.8l27.8-5.4L753.8,458.5z M754.8,486l-4.7,10.7h79.8l-4.5,9.7c-1.4,3.2-3.8,5.8-7,7.7
			c-3.3,1.9-6.7,2.8-10.3,2.8h-48.8c-12.3,0-20.4,4.1-24.2,12.1l-24.5,53.8h-1.4c-5.7,0-8.5-1.7-8.5-5.8c0-1.3,0.4-2.7,1.1-4.3
			l40.8-89.8l-27.8,5.4l-39.6,87c-0.3,1.3-0.4,2.5-0.4,3.6c0,4.9,2.5,8.7,7.4,11.5c4.1,2.3,8.9,3.6,14.1,3.6l13.2,0l109.7,0l4.7-11
			h-88.5l22.3-48.7c1.4-3.1,4.6-5.1,9.3-6c2-0.4,5.9-0.5,11.6-0.5h32.9c5.9,0,12.4-1.4,19.5-4.2c8.7-3.4,14.7-8.1,18.2-14.1
			l10.7-23.4H754.8z M431.2,458.5l-27.8,5.4l-7.3,15.8l27.8-5.4L431.2,458.5z M675.9,486l-28.3,62.1h-41.1l28.3-62.1h-25.1
			l-28.3,62.1h-28.1c-6,0-9.1-2.2-9.1-6.6c0-1.3,0.3-2.7,0.9-4.1l23.5-51.4h-18.8l0,0h-80.1l12.6-27.5l-26.8,5.3L445.4,486H425
			l-4.7,10.3h20.4l-35.8,78.5c-0.5,1.6-0.8,3.1-0.8,4.6c0,1.2,0.2,2.3,0.4,3.4h-17.7c-5.7,0-8.5-2.1-8.5-6.2c0-1.3,0.4-2.7,1.1-4.3
			l40.7-89.5l-27.8,5.4l-39.5,86.6c-0.3,1.3-0.4,2.5-0.4,3.6c0,4.9,2.3,9.2,7.2,12c4.1,2.3,8.7,3.5,13.9,3.5h51.5l71.1,0l4.9-11.2
			h-62.7c-5.9,0-8.8-2.1-8.8-6.4c0-1.2,0.4-2.6,1.1-4.2l34.6-76h74.2l-20.1,44.1c-0.5,1.5-0.8,3-0.8,4.5c0,4.6,2.6,8.2,7.8,10.8
			c4.2,2.1,8.9,3.1,13.9,3.1h127.7L701,486H675.9z M369,500c0-4.5-2.6-8.1-7.8-10.8c-4.1-2.1-8.7-3.1-13.9-3.1l-65,0l12.6-27.5
			l-27.9,5.4l-43.3,94.8h96.2c12.3,0,23.7-1.5,28.1-10.4l20.1-44.1C368.7,502.8,369,501.3,369,500z M341.9,507.3l-15.4,33.7
			c-2.3,3.9-6.6,5.8-12.8,5.8h-59.2l22.8-50.2h56.8c5.9,0,8.8,2.2,8.8,6.5C342.9,504.5,342.6,505.9,341.9,507.3z"/>
	</g>
	<g>
		<path class="st0" d="M199.7,511.9c0-45-36.5-81.4-81.5-81.4c-45,0-81.4,36.5-81.4,81.4c0,45,36.5,81.4,81.4,81.4
			c10.8,0,21.2-2.1,30.6-6c-9.6-1.2-17-9.3-17-19.2c0-10.7,8.7-19.4,19.4-19.4c10.7,0,19.4,8.7,19.4,19.4c0,2.6-0.5,5.1-1.4,7.3
			C187.8,560.5,199.7,537.6,199.7,511.9z"/>
	</g>
</g>
</svg>
