<?xml version="1.0" encoding="utf-8"?>
<!-- Generator: Adobe Illustrator 19.1.0, SVG Export Plug-In . SVG Version: 6.00 Build 0)  -->
<svg version="1.1" id="Capa_1" xmlns="http://www.w3.org/2000/svg" xmlns:xlink="http://www.w3.org/1999/xlink" x="0px" y="0px"
	 viewBox="-255 257 512 512" style="enable-background:new -255 257 512 512;" xml:space="preserve">
<style type="text/css">
	.st0{fill:#676767;}
</style>
<g>
	<g>
		<path class="st0" d="M234.9,420.9c2-5.5,4-12.8,4.5-21.4c0.7-15.1-3-36.3-24.3-55.6c1.4-9.9,1.4-25.5-7.3-41
			c-11.5-20.6-33.8-34.5-66.6-41.4c-22-4.7-50.8-5.7-85.7-3c-70.3-1.4-138.9,7.3-142.7,7.8l-25.2,3c-7.3-5.1-16.2-8.1-25.7-8.1
			h-65.3c-24.6,0-44.5,20-44.5,44.5v174c0,24.6,20,44.5,44.5,44.5h65.3c7.7,0,14.9-1.9,21.2-5.4c4.5,9.9,11.1,21.1,21,31.5
			c0.5,0.5,1.1,1.1,1.7,1.5c33.6,25.8,73.2,118.7,87.3,156.6c-1.4,11.8-2.8,37.3,9,51.1c5.2,6.1,12.5,9.4,20.7,9.4
			c8.2,0,36.7-1.9,54.5-26.4c16.8-23.3,17.8-58.2,2.8-103.9c-12.6-38.3-13.8-55.4-13.4-62.2c5.8,1.3,11.5,2.5,16.9,3.4h0.1
			c1,0.2,24.5,5.5,52.7,6.7c40,1.9,69.1-5,86-20.6c23.3-21.3,20.6-48.5,13.6-65.9c6-7.8,13.3-20.6,13.9-36.8
			C250.3,448.6,245.4,434.4,234.9,420.9z"/>
	</g>
</g>
</svg>
