<?xml version="1.0" encoding="UTF-8"?>
<svg width="513px" height="490px" viewBox="0 0 513 490" version="1.1" xmlns="http://www.w3.org/2000/svg" xmlns:xlink="http://www.w3.org/1999/xlink">
    <!-- Generator: Sketch 52.3 (67297) - http://www.bohemiancoding.com/sketch -->
    <title>Untitled</title>
    <desc>Created with Sketch.</desc>
    <g id="Page-1" stroke="none" stroke-width="1" fill="none" fill-rule="evenodd">
        <g id="favorite-filled" fill="#ED1C24">
            <path d="M511.3,185.3 C509.6,180.2 505.2,176.5 499.8,175.6 L340.1,152.9 L268.2,8.5 C265.8,3.7 260.8,0.6 255.5,0.6 C250.1,0.6 245.2,3.6 242.8,8.6 L171.9,153.5 L12.2,177.2 C6.8,178 2.4,181.7 0.7,186.9 C-1,192 0.5,197.7 4.4,201.4 L120.3,313.7 L93.5,472.8 C92.6,478.2 94.8,483.5 99.2,486.7 C101.6,488.5 104.6,489.4 107.5,489.4 C109.8,489.4 112,488.9 114.1,487.7 L256.7,412.2 L399.7,486.9 C401.8,488 404,488.5 406.2,488.5 C414,488.5 420.4,482.1 420.4,474.3 C420.4,473.1 420.3,472.1 420,471 L392.4,312.8 L507.6,199.8 C511.6,196.1 513,190.5 511.3,185.3 Z" id="Path"></path>
        </g>
    </g>
</svg>