<?xml version="1.0" encoding="UTF-8"?>
<svg width="980px" height="940px" viewBox="0 0 980 940" version="1.1" xmlns="http://www.w3.org/2000/svg" xmlns:xlink="http://www.w3.org/1999/xlink">
    <!-- Generator: Sketch 50.2 (55047) - http://www.bohemiancoding.com/sketch -->
    <title>Untitled</title>
    <desc>Created with Sketch.</desc>
    <defs></defs>
    <g id="Page-1" stroke="none" stroke-width="1" fill="none" fill-rule="evenodd">
        <g id="inbox-2" fill="#ED1C24" fill-rule="nonzero">
            <path d="M973.5,458 L756.3,171.1 C750.3,163.2 740.9,158.5 731,158.5 L575.4,158.5 L575.4,222.1 L715.2,222.1 L916.5,487.8 L916.5,875.5 L63.6,875.5 L63.6,487.8 L264.9,222.1 L410.1,222.1 L410.1,158.5 L249,158.5 C239,158.5 229.7,163.2 223.7,171.1 L6.4,458 C2.2,463.5 0,470.3 0,477.2 L0,907.4 C0,925 14.2,939.2 31.8,939.2 L948.2,939.2 C965.8,939.2 980,924.9 980,907.4 L980,477.1 C980,470.2 977.7,463.4 973.5,458 Z" id="Shape"></path>
            <path d="M621.2,501.4 L621.2,602.1 L358.7,602.1 L358.7,501.4 C358.7,490.9 350.2,482.3 339.6,482.3 L178.6,482.3 L305.5,311.5 L310,311.5 C306.7,298.9 307.8,285.5 313.4,273.4 L295.9,273.4 C289.8,273.4 284.2,276.2 280.6,281.1 L125.3,490 C121,495.8 120.3,503.5 123.6,509.9 C126.8,516.4 133.4,520.4 140.7,520.4 L320.7,520.4 L320.7,621 C320.7,631.5 329.2,640.1 339.8,640.1 L640.4,640.1 C651,640.1 659.5,631.6 659.5,621 L659.5,520.5 L839.5,520.5 C846.7,520.5 853.3,516.4 856.6,510 C859.8,503.6 859.1,495.9 854.9,490.1 L699.6,281.1 C696,276.3 690.3,273.4 684.3,273.4 L672.3,273.4 C678.1,285.9 679.1,299.7 675.5,312.6 L801.7,482.4 L640.3,482.4 C629.8,482.4 621.2,490.9 621.2,501.4 Z" id="Shape"></path>
            <path d="M348.2,288.5 C345,294.9 345.6,302.6 349.8,308.4 L352,311.5 L477.3,484 C480.9,489 486.6,491.9 492.7,491.9 C498.8,491.9 504.5,489 508.1,484 L633.4,311.6 L635.6,308.5 C639.8,302.7 640.4,295 637.2,288.6 C634,282.2 627.4,278.2 620.2,278.2 L537.2,278.2 L537.2,273.4 L537.2,222.2 L537.2,158.6 L537.2,45.4 C537.2,20.9 517.3,0.9 492.7,0.9 C468.1,0.9 448.2,20.9 448.2,45.4 L448.2,158.6 L448.2,222.2 L448.2,273.4 L448.2,278.2 L365.2,278.2 C358,278.1 351.5,282.2 348.2,288.5 Z" id="Shape"></path>
        </g>
    </g>
</svg>