<?xml version="1.0" encoding="utf-8"?>
<!-- Generator: Adobe Illustrator 19.1.0, SVG Export Plug-In . SVG Version: 6.00 Build 0)  -->
<svg version="1.1" id="Capa_1" xmlns="http://www.w3.org/2000/svg" xmlns:xlink="http://www.w3.org/1999/xlink" x="0px" y="0px"
	 viewBox="-255 257 512 512" style="enable-background:new -255 257 512 512;" xml:space="preserve">
<style type="text/css">
	.st0{fill:#AA2E2E;}
</style>
<g>
	<path class="st0" d="M256.3,453.3c-1.7-5.1-6.1-8.8-11.5-9.7L85.1,420.9L13.2,276.5c-2.4-4.8-7.4-7.9-12.7-7.9l0,0
		c-5.4,0-10.3,3-12.7,8l-70.9,144.9l-159.7,23.7c-5.4,0.8-9.8,4.5-11.5,9.7c-1.7,5.1-0.2,10.8,3.7,14.5l115.9,112.3l-26.8,159.1
		c-0.9,5.4,1.3,10.7,5.7,13.9c2.4,1.8,5.4,2.7,8.3,2.7c2.3,0,4.5-0.5,6.6-1.7L1.7,680.2l143,74.7c2.1,1.1,4.3,1.6,6.5,1.6l0,0
		c7.8,0,14.2-6.4,14.2-14.2c0-1.2-0.1-2.2-0.4-3.3l-27.6-158.2l115.2-113C256.6,464.1,258,458.5,256.3,453.3z M-61,440.6"/>
</g>
</svg>
