<?xml version="1.0" encoding="UTF-8"?>
<svg width="513px" height="491px" viewBox="0 0 513 491" version="1.1" xmlns="http://www.w3.org/2000/svg" xmlns:xlink="http://www.w3.org/1999/xlink">
    <!-- Generator: Sketch 52.3 (67297) - http://www.bohemiancoding.com/sketch -->
    <title>Untitled</title>
    <desc>Created with Sketch.</desc>
    <g id="Page-1" stroke="none" stroke-width="1" fill="none" fill-rule="evenodd">
        <g id="favorite-white" transform="translate(0.000000, 0.559412)" fill="#ED1C24" fill-rule="nonzero">
            <path d="M511.298028,184.751986 C509.616659,179.602793 505.203066,175.924798 499.843702,175.084114 L340.11364,152.385631 L268.235113,7.89297692 C265.818145,3.05904085 260.879123,0.0115594123 255.519759,0.0115594123 C250.160395,0.0115594123 245.221373,3.05904085 242.804405,7.99806248 L171.871648,152.911059 L12.1415864,176.660397 C6.78222248,177.501082 2.36862867,181.179076 0.687259607,186.328269 C-0.994109461,191.477462 0.477088473,197.152083 4.36525444,200.830077 L120.274635,313.166548 L93.477815,472.266096 C92.5320449,477.62546 94.7388418,482.984824 99.1524356,486.137391 C101.569404,487.923846 104.5118,488.869616 107.454195,488.869616 C109.766078,488.869616 111.972875,488.344188 114.074586,487.188247 L256.6757,411.631724 L399.697157,486.347562 C401.798868,487.398418 404.005665,487.923846 406.212462,487.923846 C413.988794,487.923846 420.399013,481.513626 420.399013,473.737294 C420.399013,472.581353 420.293928,471.530497 419.978671,470.479642 L392.341167,312.325864 L507.514948,199.35888 C511.613285,195.575799 512.979397,189.901179 511.298028,184.751986 Z M367.330802,297.298628 C363.968064,300.55628 362.496866,305.285131 363.33755,309.908896 L387.402145,447.886245 L263.191005,383.04845 C259.092668,380.841653 254.153647,380.946739 249.950224,383.04845 L126.159426,448.621844 L149.383337,310.434324 C150.118936,305.810559 148.647738,301.186794 145.284999,297.929141 L44.8231976,200.409735 L183.43106,179.812964 C188.054825,179.077365 192.048077,176.240055 194.044702,172.036632 L255.624845,46.2492088 L318.045671,171.721375 C320.147383,175.924798 324.140634,178.762108 328.764399,179.497707 L467.477347,199.253794 L367.330802,297.298628 Z" id="Shape"></path>
        </g>
    </g>
</svg>