<?xml version="1.0" encoding="UTF-8"?>
<svg width="882px" height="980px" viewBox="0 0 882 980" version="1.1" xmlns="http://www.w3.org/2000/svg" xmlns:xlink="http://www.w3.org/1999/xlink">
    <!-- Generator: Sketch 50.2 (55047) - http://www.bohemiancoding.com/sketch -->
    <title>Untitled 3</title>
    <desc>Created with Sketch.</desc>
    <defs></defs>
    <g id="Page-1" stroke="none" stroke-width="1" fill="none" fill-rule="evenodd">
        <g id="inbox-o" fill="#ED1C24" fill-rule="nonzero">
            <path d="M329.3,97.9 L181.1,97.9 C174.9,97.9 168.7,99.8 163.4,103.9 C158.1,107.9 154.6,113.4 153,119.4 L0,613.7 L0,615.5 L0,664.3 L0,931.2 C0,943.7 4.8,956.2 14.3,965.7 C23.8,975.2 36.3,980 48.8,980 L833.2,980 C845.7,980 858.2,975.2 867.7,965.7 C877.2,956.2 882,943.7 882,931.2 L882,664.3 L882,615.5 L882,613.7 L742.2,120 C740.7,113.9 737.2,108.3 731.9,104.1 C726.6,99.9 720.3,97.9 714,97.9 L552.7,97.9 L552.7,146.7 L699,146.7 L831.7,615.4 L587.5,615.4 C565.5,615.4 544.7,624 529.2,639.6 C513.6,655.2 505,675.9 505,698 C505,698.9 504.8,700.1 503.6,701.3 C502.5,702.4 501.2,702.7 500.3,702.7 L384,702.7 C383.1,702.7 381.9,702.5 380.7,701.3 C379.6,700.2 379.4,698.9 379.4,698 C379.4,676 370.8,655.3 355.2,639.6 C339.6,624 318.9,615.4 296.9,615.4 L50.6,615.4 L195.7,146.7 L329.3,146.7 L329.3,97.9 Z M833.2,931.2 L48.8,931.2 C48.8,931.2 48.8,931.2 48.8,931.2 L48.8,664.3 L296.8,664.3 C305.8,664.3 314.2,667.8 320.6,674.2 C327,680.6 330.5,689 330.5,698 C330.5,712.3 336.1,725.8 346.2,735.8 C356.3,745.9 369.7,751.5 384,751.5 L500.3,751.5 C514.6,751.5 528,745.9 538.1,735.9 C548.2,725.8 553.8,712.4 553.8,698 C553.8,689 557.3,680.6 563.7,674.2 C570,667.8 578.5,664.3 587.5,664.3 L833.2,664.3 L833.2,931.2 C833.2,931.2 833.2,931.2 833.2,931.2 C833.2,931.2 833.2,931.2 833.2,931.2 Z" id="Shape"></path>
            <path d="M442.5,580.5 L236,374 C226.5,364.5 226.5,349 236,339.5 C245.5,330 261,330 270.5,339.5 L442.5,511.5 L614.4,339.6 C623.9,330.1 639.4,330.1 648.9,339.6 C658.4,349.1 658.4,364.6 648.9,374.1 L442.5,580.5 Z" id="Shape"></path>
            <path d="M442.5,559.9 C429,559.9 418.1,549 418.1,535.5 L418.1,24.5 C418,10.9 429,0 442.5,0 C456,0 466.9,10.9 466.9,24.4 L466.9,535.4 C466.9,549 456,559.9 442.5,559.9 Z" id="Shape"></path>
        </g>
    </g>
</svg>