<?xml version="1.0" encoding="UTF-8"?>
<svg width="980px" height="979px" viewBox="0 0 980 979" version="1.1" xmlns="http://www.w3.org/2000/svg" xmlns:xlink="http://www.w3.org/1999/xlink">
    <!-- Generator: Sketch 50.2 (55047) - http://www.bohemiancoding.com/sketch -->
    <title>Untitled 2</title>
    <desc>Created with Sketch.</desc>
    <defs></defs>
    <g id="Page-1" stroke="none" stroke-width="1" fill="none" fill-rule="evenodd">
        <g id="inbox" fill="#ED1C24" fill-rule="nonzero">
            <g id="Group" transform="translate(490.000000, 489.800000) scale(-1, 1) rotate(-180.000000) translate(-490.000000, -489.800000) translate(0.000000, 0.800000)">
                <path d="M466.07,976.43 C448.46,971.84 433.15,959.58 425.49,944.08 L420.13,933.17 L419.56,772.01 L418.99,610.65 L358.7,610.27 L298.41,609.7 L388.75,514.95 C438.52,462.89 479.86,420.01 480.63,419.63 C481.4,419.25 522.93,461.93 573.08,514.38 L664,609.7 L602.94,610.27 L541.69,610.65 L541.69,770.67 C541.69,884.17 541.12,932.98 539.59,937.96 C533.27,959.21 509.54,976.24 484.85,977.39 C477.75,977.77 469.33,977.39 466.07,976.43 Z" id="Shape"></path>
                <path d="M206.91,814.12 C205,810.1 157.53,709.04 101.64,589.41 L0,371.97 L0,186.12 L0,0.07 L490,0.07 L980,0.07 L980,186.3 L980,372.35 L866.3,596.3 L752.61,820.24 L673.94,820.81 L595.27,821.19 L595.27,794.39 L595.27,767.59 L656.14,767.59 L716.82,767.59 L810.03,575.61 L903.44,383.82 L766.58,383.25 L629.72,382.87 L629.72,374.64 C629.72,361.43 624.36,340.76 617.28,325.83 C605.03,299.8 580.15,281.42 544.36,271.47 C531.15,267.83 524.26,267.45 490,267.26 C445.79,267.26 432.58,269.75 406.93,282.38 C373.43,299.03 354.29,328.32 350.85,368.71 L349.7,382.88 L212.27,382.88 C136.47,382.88 74.65,383.26 74.65,383.45 C74.65,383.83 113.31,470.35 160.59,575.43 L246.53,766.64 L307.01,767.21 L367.49,767.59 L367.49,794.39 L367.49,821.19 L289.01,821.19 L210.53,821.19 L206.91,814.12 Z M613.65,187.83 C628.58,181.13 633.94,163.9 625.33,151.08 C616.33,137.3 621.31,137.87 490.01,137.87 C381.67,137.87 371.72,138.06 365.6,141.32 C345.31,151.46 345.5,178.45 366.17,187.64 C373.83,191.28 379.95,191.47 490.01,191.47 C598.72,191.47 606.18,191.09 613.65,187.83 Z" id="Shape"></path>
            </g>
        </g>
    </g>
</svg>