<?xml version="1.0" encoding="utf-8"?>
<!-- Generator: Adobe Illustrator 19.1.0, SVG Export Plug-In . SVG Version: 6.00 Build 0)  -->
<svg version="1.1" id="Capa_1" xmlns="http://www.w3.org/2000/svg" xmlns:xlink="http://www.w3.org/1999/xlink" x="0px" y="0px"
	 viewBox="-255 257 512 512" style="enable-background:new -255 257 512 512;" xml:space="preserve">
<style type="text/css">
	.st0{fill:#676767;}
</style>
<g>
	<g>
		<path class="st0" d="M234.9,605.1c10.5-13.4,15.5-27.7,14.9-42.5c-0.6-16.3-7.9-29-13.9-36.8c7-17.3,9.6-44.6-13.6-65.8
			c-17-15.5-45.9-22.5-86-20.6c-28.2,1.3-51.7,6.5-52.7,6.7h-0.1c-5.4,1-11,2.1-16.8,3.4c-0.4-6.9,0.7-23.9,13.4-62.2
			c15-45.6,14.1-80.5-2.8-103.9C59.5,258.9,31.2,257,22.8,257c-8,0-15.4,3.3-20.7,9.4c-11.9,13.8-10.5,39.3-9,51.1
			C-21,355.4-60.6,448.3-94.1,474.1c-0.6,0.4-1.2,1-1.7,1.5c-9.9,10.4-16.5,21.6-21,31.5c-6.3-3.4-13.5-5.4-21.2-5.4h-65.3
			c-24.6,0-44.5,20-44.5,44.5v174c0,24.6,20,44.5,44.5,44.5h65.3c9.5,0,18.4-3,25.7-8.1l25.2,3c3.9,0.5,72.4,9.2,142.7,7.8
			c12.7,1,24.7,1.5,35.9,1.5c19.2,0,35.9-1.5,49.8-4.5c32.8-7,55.1-20.9,66.5-41.3c8.7-15.6,8.7-31.2,7.3-41
			c21.3-19.3,25.1-40.6,24.3-55.6C238.9,617.9,237,610.5,234.9,605.1z"/>
	</g>
</g>
</svg>
