<?xml version="1.0" encoding="UTF-8"?>
<svg width="513px" height="512px" viewBox="0 0 513 512" version="1.1" xmlns="http://www.w3.org/2000/svg" xmlns:xlink="http://www.w3.org/1999/xlink">
    <!-- Generator: Sketch 52.3 (67297) - http://www.bohemiancoding.com/sketch -->
    <title>Untitled 2</title>
    <desc>Created with Sketch.</desc>
    <g id="Page-1" stroke="none" stroke-width="1" fill="none" fill-rule="evenodd">
        <g id="question" fill="#FFFFFF">
            <path d="M249.875774,363.176929 C239.770504,363.176929 231.502555,371.444877 231.502555,381.550147 L231.502555,393.7986 C231.502555,403.90387 239.770504,412.171818 249.875774,412.171818 C259.981044,412.171818 268.248993,403.90387 268.248993,393.7986 L268.248993,381.550147 C268.248993,371.444877 259.981044,363.176929 249.875774,363.176929 Z" id="Path"></path>
            <path d="M256.00054,512 C397.168464,512 512.001081,397.167383 512.001081,255.99946 C512.001081,114.831536 397.167383,0 256.00054,0 C114.833697,0 0,114.832617 0,256.00054 C0,397.168464 114.832617,512 256.00054,512 Z M256.00054,36.7464373 C376.957924,36.7464373 475.254643,135.043157 475.254643,256.00054 C475.254643,376.957924 376.957924,475.254643 256.00054,475.254643 C135.043157,475.254643 36.7464373,376.956843 36.7464373,256.00054 C36.7464373,135.044238 135.043157,36.7464373 256.00054,36.7464373 Z" id="Shape" fill-rule="nonzero"></path>
            <path d="M176.382899,210.067494 C176.688759,210.067494 176.688759,210.067494 176.382899,210.067494 C186.488169,210.067494 194.756118,202.412346 194.756118,192.307076 C194.756118,192.307076 195.061978,177.608501 202.411265,163.215786 C211.597875,144.842567 227.827912,135.655958 251.713096,135.655958 C274.066818,135.655958 290.602715,141.780725 299.789324,153.723317 C307.444472,163.522727 309.588735,176.9957 305.914091,191.694275 C301.320786,209.761634 285.70355,225.37887 270.699115,240.689165 C252.325897,259.675184 233.034017,278.967064 233.034017,304.99543 C233.034017,315.1007 241.301965,323.368649 251.407236,323.368649 C261.512506,323.368649 269.780454,315.1007 269.780454,304.99543 C269.780454,293.971499 282.947568,280.497445 297.034422,266.411671 C314.48898,248.651253 334.393661,228.440712 341.436007,200.880884 C348.172494,175.464238 343.579189,150.048673 328.880614,131.368513 C317.550823,116.669939 294.89016,98.9095208 252.018956,98.9095208 C203.942727,98.9095208 180.976204,124.632027 169.952273,146.679889 C158.928341,168.727752 158.315541,189.856953 158.315541,192.307076 C158.315541,202.105405 166.277629,210.067494 176.382899,210.067494 Z" id="Path"></path>
        </g>
    </g>
</svg>