<?xml version="1.0" encoding="UTF-8"?>
<svg width="465px" height="432px" viewBox="0 0 465 432" version="1.1" xmlns="http://www.w3.org/2000/svg" xmlns:xlink="http://www.w3.org/1999/xlink">
    <!-- Generator: Sketch 52.3 (67297) - http://www.bohemiancoding.com/sketch -->
    <title>Untitled</title>
    <desc>Created with Sketch.</desc>
    <g id="Page-1" stroke="none" stroke-width="1" fill="none" fill-rule="evenodd">
        <g id="references" fill="#FFFFFF" fill-rule="nonzero">
            <path d="M428.274,37.231 C394.274,8.614 356.591,-3.569 320.607,2.381 C274.14,10.031 246.94,32.414 232.207,50.548 C217.19,32.415 189.99,10.031 143.807,2.381 C137.857,1.248 131.624,0.964 125.674,0.964 C84.307,0.964 44.641,23.631 7.241,68.397 L6.958,68.68 C4.125,70.663 2.141,73.497 1.008,76.897 C-0.125,80.014 -0.125,82.564 0.158,84.83 L0.158,414.063 C0.158,420.863 4.125,427.096 10.358,429.646 C16.591,432.196 23.958,431.063 28.775,426.246 C29.342,425.396 95.358,363.063 149.758,363.063 C198.208,363.063 215.208,416.613 215.775,418.88 C215.775,419.163 216.058,419.163 216.058,419.447 C216.058,419.731 216.341,420.297 216.625,420.58 C216.908,421.147 217.192,421.713 217.475,422.28 C217.758,422.563 217.758,422.847 218.042,423.13 C218.325,423.697 218.892,424.263 219.175,424.83 C219.458,425.113 219.458,425.397 219.742,425.397 C220.309,425.964 220.875,426.53 221.159,426.814 C221.442,427.097 221.442,427.097 221.726,427.381 C222.293,427.948 223.143,428.514 223.709,428.798 C223.709,428.798 223.992,428.798 223.992,429.081 C226.542,430.498 229.375,431.348 232.209,431.348 C232.492,431.348 232.492,431.348 232.776,431.348 C233.343,431.348 233.909,431.348 234.476,431.348 C234.759,431.348 235.043,431.348 235.326,431.065 C235.609,431.065 235.893,431.065 236.176,430.782 C236.743,430.499 237.593,430.499 238.159,430.215 C238.442,430.215 238.726,429.932 238.726,429.932 C239.293,429.649 240.143,429.365 240.709,428.799 C240.992,428.799 240.992,428.516 241.276,428.516 C241.843,428.233 242.409,427.666 242.976,427.099 C243.259,426.816 243.259,426.816 243.543,426.532 C244.11,425.965 244.676,425.399 244.96,425.115 C245.244,424.831 245.243,424.548 245.527,424.265 C245.81,423.698 246.377,423.132 246.66,422.565 C246.943,422.282 246.943,421.715 247.227,421.432 C247.51,420.865 247.794,420.299 247.794,419.732 C247.794,419.449 248.077,419.449 248.077,419.165 C248.644,416.898 265.644,363.348 314.094,363.348 C368.494,363.348 434.794,425.681 435.361,426.531 C438.478,429.648 442.728,431.348 446.978,431.348 C449.245,431.348 451.511,430.781 453.778,429.931 C460.011,427.381 463.978,421.148 463.978,414.348 L463.978,86.531 C464.261,85.398 464.261,83.981 464.261,82.848 C464.261,77.181 462.844,74.065 452.078,61.598 C447.541,55.365 439.041,46.298 428.274,37.231 Z M149.757,329.065 C106.974,329.065 61.924,356.548 33.874,377.798 L33.874,89.365 C68.441,48.282 103.574,30.148 138.141,35.815 C191.408,44.598 210.674,76.898 215.208,85.965 L215.208,355.415 C197.074,338.131 174.691,329.065 149.757,329.065 Z M430.542,377.515 C402.208,356.265 357.441,328.782 314.658,328.782 C289.725,328.782 267.625,337.849 249.208,355.132 L249.208,85.965 C253.741,76.615 273.291,44.882 326.275,35.815 C330.525,35.248 334.775,34.682 339.025,34.682 C383.792,34.682 420.058,74.915 430.542,87.949 L430.542,377.515 Z" id="Shape"></path>
        </g>
    </g>
</svg>